<?xml version="1.0" encoding="utf-8"?><svg viewBox="0 0 100 100" xmlns="http://www.w3.org/2000/svg" width="60px" height="60px" xmlns:xlink="http://www.w3.org/1999/xlink" style="width:100%;height:100%;background-size:initial;background-repeat-y:initial;background-repeat-x:initial;background-position-y:initial;background-position-x:initial;background-origin:initial;background-color:initial;background-clip:initial;background-attachment:initial;animation-play-state:paused" ><g class="ldl-scale" style="transform-origin:50% 50%;transform:rotate(0deg) scale(0.8, 0.8);animation-play-state:paused" ><g style="animation-play-state:paused" ><linearGradient y2="54.432" x2="75.932" y1="23.27" x1="46.393" gradientUnits="userSpaceOnUse" id="a" style="animation-play-state:paused" ><stop stop-color="#a0c8d7" offset="0" style="stop-color:rgb(160, 200, 215);animation-play-state:paused" ></stop>
<stop stop-color="#76a4bd" offset="1" style="stop-color:rgb(118, 164, 189);animation-play-state:paused" ></stop></linearGradient>
<path fill="url(#a)" d="M62.708 9.393c-13.163.653-23.881 11.315-24.605 24.475a25.865 25.865 0 0 0 4.029 15.41l-3.174 9.377c-.366 1.082.666 2.115 1.749 1.749l9.377-3.174a25.863 25.863 0 0 0 15.41 4.029c13.16-.724 23.821-11.442 24.475-24.605.762-15.389-11.874-28.025-27.261-27.261z" style="animation-play-state:paused" ></path>
<g style="animation-play-state:paused" ><path fill="#fff" d="M66.911 49.287h-5.758a1.016 1.016 0 0 1-1.016-1.016V34.722c0-.561.455-1.016 1.016-1.016h5.758c.561 0 1.016.455 1.016 1.016v13.549c0 .561-.455 1.016-1.016 1.016z" style="fill:rgb(255, 255, 255);animation-play-state:paused" ></path>
<path fill="#fff" d="M64.031 21.046a4.707 4.707 0 0 0 0 9.414 4.706 4.706 0 1 0 0-9.414z" style="fill:rgb(255, 255, 255);animation-play-state:paused" ></path></g>
<path opacity=".1" d="M81.975 16.568c.007.392.026.78.026 1.174 0 17.738-7.348 33.502-18.74 43.542.737.022 1.48.014 2.231-.027 13.16-.724 23.821-11.442 24.475-24.605.392-7.904-2.756-15.075-7.992-20.084z" style="animation-play-state:paused" ></path>
<path stroke-miterlimit="10" stroke-linejoin="round" stroke-linecap="round" stroke-width="3" stroke="#fff" fill="none" d="M43.046 27.985c-.125.379-.242.764-.352 1.156" style="stroke:rgb(255, 255, 255);animation-play-state:paused" ></path>
<path stroke-miterlimit="10" stroke-linejoin="round" stroke-linecap="round" stroke-width="3" stroke="#fff" fill="none" d="M50.551 17.529c-2.373 1.687-4.298 3.837-5.75 6.433" style="stroke:rgb(255, 255, 255);animation-play-state:paused" ></path></g>
<g style="animation-play-state:paused" ><path fill="#323232" d="M27.325 51.385a5.3 5.3 0 0 0 0-7.496l-4.759-4.759a5.3 5.3 0 0 0-7.496 0l.008-.008-2.436 2.436c-14.126 14.126 32.314 60.566 46.44 46.44l2.436-2.436-.008.008a5.3 5.3 0 0 0 0-7.496l-4.759-4.759a5.3 5.3 0 0 0-7.496 0l-1.918 1.918c-1.543 1.543-3.997 1.643-5.684.259-5.818-4.774-11.731-10.687-16.505-16.505-1.384-1.687-1.284-4.141.259-5.684l1.918-1.918z" style="animation-play-state:paused" ></path>
<path opacity=".5" d="M63.05 81.945c-14.112 4.212-34.768-6.502-51.667-26.638 6.793 18.539 36.822 43.568 47.698 32.691l2.436-2.436-.007.008a5.273 5.273 0 0 0 1.54-3.625z" style="animation-play-state:paused" ></path></g>
<metadata xmlns:d="https://loading.io/stock/" style="animation-play-state:paused" ><d:name style="animation-play-state:paused" >support</d:name>


<d:tags style="animation-play-state:paused" >support,helpdesk,contact,information,call center,operator,concall</d:tags>


<d:license style="animation-play-state:paused" >by</d:license>


<d:slug style="animation-play-state:paused" >xueidj</d:slug></metadata></g><!-- generated by https://loading.io/ --></svg>