<?xml version="1.0" encoding="utf-8"?><svg xml:space="preserve" viewBox="0 0 100 100" y="0" x="0" xmlns="http://www.w3.org/2000/svg" id="圖層_1" version="1.1" width="189px" height="189px" xmlns:xlink="http://www.w3.org/1999/xlink" style="width:100%;height:100%;background-size:initial;background-repeat-y:initial;background-repeat-x:initial;background-position-y:initial;background-position-x:initial;background-origin:initial;background-color:initial;background-clip:initial;background-attachment:initial;animation-play-state:paused" ><g class="ldl-scale" style="transform-origin:50% 50%;transform:rotate(0deg) scale(0.8, 0.8);animation-play-state:paused" ><circle fill="#e0e0e0" r="37.333" cy="50" cx="50" style="fill:rgb(224, 224, 224);animation-play-state:paused" ></circle>
<path stroke-miterlimit="10" stroke-width="3.5" stroke="#333" fill="#849b87" d="M50 92.333C26.657 92.333 7.667 73.343 7.667 50S26.657 7.667 50 7.667 92.333 26.657 92.333 50 73.343 92.333 50 92.333zm0-74.666c-17.829 0-32.333 14.505-32.333 32.333S32.171 82.333 50 82.333 82.333 67.829 82.333 50 67.829 17.667 50 17.667z" style="stroke:rgb(51, 51, 51);fill:rgb(255, 255, 255);animation-play-state:paused" ></path>
<path stroke-miterlimit="10" stroke-width="3.5" stroke="#333" fill="#fff" d="M50 50h0a2.927 2.927 0 0 1-2.927-2.927V27.177A2.927 2.927 0 0 1 50 24.25h0a2.927 2.927 0 0 1 2.927 2.927v19.895A2.927 2.927 0 0 1 50 50z" style="stroke:rgb(51, 51, 51);fill:rgb(255, 255, 255);animation-play-state:paused" ></path>
<circle fill="#333" r="6" cy="50" cx="50" style="fill:rgb(51, 51, 51);animation-play-state:paused" ></circle>
<path stroke-miterlimit="10" stroke-width="3.5" stroke="#333" fill="#fff" d="M50 50h0a2.928 2.928 0 0 1-1.072-3.999l5.448-9.436a2.928 2.928 0 0 1 3.999-1.072h0a2.928 2.928 0 0 1 1.072 3.999l-5.448 9.436A2.927 2.927 0 0 1 50 50z" style="stroke:rgb(51, 51, 51);fill:rgb(255, 255, 255);animation-play-state:paused" ></path>
<metadata xmlns:d="https://loading.io/stock/" style="animation-play-state:paused" ><d:name style="animation-play-state:paused" >clock</d:name>
<d:tags style="animation-play-state:paused" >clock,time,1 o'clock,hour</d:tags>
<d:license style="animation-play-state:paused" >by</d:license>
<d:slug style="animation-play-state:paused" >uckh7k</d:slug></metadata></g><!-- generated by https://loading.io/ --></svg>