<?xml version="1.0" encoding="utf-8"?><svg xml:space="preserve" viewBox="0 0 100 100" y="0" x="0" xmlns="http://www.w3.org/2000/svg" id="圖層_1" version="1.1" width="60px" height="60px" xmlns:xlink="http://www.w3.org/1999/xlink" style="width:100%;height:100%;background-size:initial;background-repeat-y:initial;background-repeat-x:initial;background-position-y:initial;background-position-x:initial;background-origin:initial;background-color:initial;background-clip:initial;background-attachment:initial;animation-play-state:paused" ><g class="ldl-scale" style="transform-origin:50% 50%;transform:rotate(0deg) scale(0.8, 0.8);animation-play-state:paused" ><path fill="#d1d2d1" d="M50 95a4.21 4.21 0 0 1-3.735-2.266L26.537 54.852a4.045 4.045 0 0 1-.086-.175c-3.168-6.838-6.099-14.031-6.099-20.311 0-7.415 3.196-14.873 8.77-20.46C34.851 8.163 42.299 5 50.094 5c7.792 0 15.211 3.168 20.892 8.921 5.504 5.574 8.661 13.026 8.662 20.444 0 6.968-3.428 14.354-5.932 19.747l-.261.564a3.242 3.242 0 0 1-.083.167L53.74 92.725a4.212 4.212 0 0 1-3.736 2.273C50.003 95 50.002 95 50 95z" style="fill:rgb(251, 251, 251);animation-play-state:paused" ></path>
<path fill="#464646" d="M49.953 9.212c-13.934 0-25.53 12.064-25.53 25.154 0 5.889 3.314 13.371 5.709 18.541L49.86 90.788l19.633-37.882c2.395-5.17 5.802-12.277 5.802-18.541 0-13.089-11.411-25.153-25.342-25.153zm-.379 35.862c-6.125 0-11.091-4.965-11.091-11.09s4.965-11.09 11.091-11.09c6.125 0 11.09 4.965 11.09 11.09s-4.966 11.09-11.09 11.09z" style="animation-play-state:paused" ></path>
<metadata xmlns:d="https://loading.io/stock/" style="animation-play-state:paused" ><d:name style="animation-play-state:paused" >marker</d:name>
<d:tags style="animation-play-state:paused" >placeholder,location,hint,marker,map</d:tags>
<d:license style="animation-play-state:paused" >free</d:license>
<d:slug style="animation-play-state:paused" >kuj9rk</d:slug></metadata></g><!-- generated by https://loading.io/ --></svg>